<svg xmlns="http://www.w3.org/2000/svg" xmlns:xlink="http://www.w3.org/1999/xlink" viewBox="0 0 24 24"><path d="M3.7070312 2.2929688L2.2929688 3.7070312L5.0683594 6.4824219C4.5292489 6.9219094 4.0485609 7.3900086 3.6191406 7.859375C1.7891406 9.899375 1 12 1 12C1 12 4 20 12 20C13.2 20 14.289531 19.819766 15.269531 19.509766C15.988638 19.290038 16.648642 19.001564 17.248047 18.662109L20.292969 21.707031L21.707031 20.292969L3.7070312 2.2929688 z M 12 4C10.8 4 9.7104688 4.1802344 8.7304688 4.4902344L10.390625 6.1503906C10.890625 6.0503906 11.43 6 12 6C17.28 6 19.940547 10.27 20.810547 12C20.480547 12.66 19.870938 13.700703 18.960938 14.720703L20.380859 16.140625C22.210859 14.100625 23 12 23 12C23 12 20 4 12 4 z M 6.4882812 7.9023438L8.5585938 9.9726562C8.1994484 10.572128 8 11.260931 8 12C8 12.08 7.9997656 12.17 8.0097656 12.25C8.1297656 14.26 9.74 15.870234 11.75 15.990234C11.83 16.000234 11.92 16 12 16C12.739069 16 13.427872 15.800552 14.027344 15.441406L15.757812 17.171875C15.108399 17.481358 14.388478 17.719759 13.609375 17.849609C13.099375 17.949609 12.57 18 12 18C6.72 18 4.0594531 13.73 3.1894531 12C3.5194531 11.34 4.1190625 10.299297 5.0390625 9.2792969C5.4485147 8.8099248 5.9391762 8.3418359 6.4882812 7.9023438 z M 12.25 8.0097656L15.990234 11.75C15.870234 9.74 14.26 8.1297656 12.25 8.0097656 z"/></svg>