<svg xmlns="http://www.w3.org/2000/svg" xmlns:xlink="http://www.w3.org/1999/xlink" viewBox="0 0 24 24">
    <path d="M10 2C8.7068414 2 7.6048587 2.84267 7.1875 4L2 4L2 6L7.1875 6C7.6048587 7.15733 8.7068414 8 10 8C11.64501 8 13 6.6450096 13 5C13 3.3549904 11.64501 2 10 2 z M 10 4C10.564129 4 11 4.4358706 11 5C11 5.5641294 10.564129 6 10 6C9.4358706 6 9 5.5641294 9 5C9 4.4358706 9.4358706 4 10 4 z M 15 4L15 6L22 6L22 4L15 4 z M 15 9C13.706841 9 12.604859 9.8426699 12.1875 11L2 11L2 13L12.1875 13C12.604859 14.15733 13.706841 15 15 15C16.64501 15 18 13.64501 18 12C18 10.35499 16.64501 9 15 9 z M 15 11C15.564129 11 16 11.435871 16 12C16 12.564129 15.564129 13 15 13C14.435871 13 14 12.564129 14 12C14 11.435871 14.435871 11 15 11 z M 20 11L20 13L22 13L22 11L20 11 z M 7 16C5.7068414 16 4.6048587 16.84267 4.1875 18L2 18L2 20L4.1875 20C4.6048587 21.15733 5.7068414 22 7 22C8.6450096 22 10 20.64501 10 19C10 17.35499 8.6450096 16 7 16 z M 7 18C7.5641294 18 8 18.435871 8 19C8 19.564129 7.5641294 20 7 20C6.4358706 20 6 19.564129 6 19C6 18.435871 6.4358706 18 7 18 z M 12 18L12 20L22 20L22 18L12 18 z"/>
</svg>